# AST/ASF file generated using VICON BodyLanguage
# -----------------------------------------------
:version 1.10
:name VICON
:units
  mass 1.0
  length 0.45
  angle deg
:documentation
   .ast/.asf automatically generated from VICON data using
   VICON BodyBuilder and BodyLanguage model FoxedUp or BRILLIANT.MOD
:root
   order TX TY TZ RX RY RZ
   axis XYZ
   position 0 0 0  
   orientation 0 0 0 
:bonedata
  begin
     id 1 
     name lhipjoint
     direction 0.661853 -0.702389 0.261917 
     length 2.64193 
     axis 0 0 0  XYZ
  end
  begin
     id 2 
     name lfemur
     direction 0.34202 -0.939693 0  
     length 7.01722  
     axis 0 0 20  XYZ
    dof rx ry rz
    limits (-160.0 20.0)
           (-70.0 70.0)
           (-60.0 70.0)
  end
  begin
     id 3 
     name ltibia
     direction 0.34202 -0.939693 0   
     length 8.25008   
     axis 0 0 20   XYZ
    dof rx
    limits (-10.0 170.0)
  end
  begin
     id 4 
     name lfoot
     direction 0.0709916 -0.195048 0.978221   
     length 2.31941   
     axis -90 7.62852e-016 20   XYZ
    dof rx rz
    limits (-45.0 90.0)
           (-70.0 20.0)
  end
  begin
     id 5 
     name ltoes
     direction 1.53586e-011 -4.22017e-011 1   
     length 1.16486   
     axis -90 7.62852e-016 20   XYZ
    dof rx
    limits (-90.0 20.0)
  end
  begin
     id 6 
     name rhipjoint
     direction -0.638185 -0.721362 0.268992   
     length 2.57244  
     axis 0 0 0  XYZ 
  end
  begin
     id 7 
     name rfemur
     direction -0.34202 -0.939693 0   
     length 7.07017   
     axis 0 0 -20   XYZ
    dof rx ry rz
    limits (-160.0 20.0)
           (-70.0 70.0)
           (-70.0 60.0)
  end
  begin
     id 8 
     name rtibia
     direction -0.34202 -0.939693 0   
     length 8.20386   
     axis 0 0 -20   XYZ
    dof rx
    limits (-10.0 170.0)
 end
 begin
     id 9 
     name rfoot
     direction -0.0822429 -0.225961 0.970658   
     length 2.32215  
     axis -90 -7.62852e-016 -20   XYZ
    dof rx rz
    limits (-45.0 90.0)
           (-20.0 70.0)
  end
  begin
     id 10 
     name rtoes
     direction -1.53597e-011 -4.21689e-011 1   
     length 1.16333   
     axis -90 -7.62852e-016 -20   XYZ
    dof rx
    limits (-90.0 20.0)
  end
  begin
     id 11 
     name lowerback
     direction -0.0131557 0.998589 -0.0514484   
     length 2.14993   
     axis 0 0 0   XYZ
    dof rx ry rz
    limits (-20.0 45.0)
           (-30.0 30.0)
           (-30.0 30.0)
  end
  begin
     id 12 
     name upperback
     direction -0.000776481 0.999993 0.00352685   
     length 2.15301   
     axis 0 0 0   XYZ
    dof rx ry rz
    limits (-20.0 45.0)
           (-30.0 30.0)
           (-30.0 30.0)
  end
  begin
     id 13 
     name thorax
     direction 0.00438186 0.999609 0.0276143   
     length 2.15424   
     axis 0 0 0   XYZ
    dof rx ry rz
    limits (-20.0 45.0)
           (-30.0 30.0)
           (-30.0 30.0)
  end
  begin
     id 14 
     name lowerneck
     direction -0.0488006 0.998094 0.0377807   
     length 1.90481   
     axis 0 0 0   XYZ
    dof rx ry rz
    limits (-20.0 45.0)
           (-30.0 30.0)
           (-30.0 30.0)
  end
  begin
     id 15 
     name upperneck
     direction 0.0443769 0.990702 -0.12861   
     length 1.91305   
     axis 0 0 0   XYZ
    dof rx ry rz
    limits (-20.0 45.0)
           (-30.0 30.0)
           (-30.0 30.0)
  end
  begin
     id 16
     name head
     direction 0.0165599 0.998647 -0.0492982  
     length 1.92369  
     axis 0 0 0   XYZ
    dof rx ry rz
    limits (-20.0 45.0)
           (-30.0 30.0)
           (-30.0 30.0)
  end
  begin
     id 17 
     name lclavicle
     direction 0.911936 0.410197 -0.0105506  
     length 3.52622  
     axis 0 0 0   XYZ
    dof ry rz
    limits (-20.0 10.0)
           (0.0 20.0)
  end
  begin
     id 18 
     name lhumerus
     direction 1 -4.48974e-011 -2.48591e-028   
     length 5.47651   
     axis 180 -30 -90   XYZ
    dof rx ry rz
    limits (-60.0 90.0)
           (-90.0 90.0)
           (-90.0 90.0)
  end
  begin
     id 19
     name lradius
     direction 1 -4.48938e-011 -4.40099e-027   
     length 3.09058   
     axis 180 -30 -90   XYZ
    dof rx
    limits (-10.0 170.0)
  end
  begin
     id 20
     name lwrist
     direction 1 -4.49042e-011 -2.99852e-027   
     length 1.54529   
     axis 1.95339e-015 90 90   XYZ
    dof ry
    limits (-180.0 0.0)
 end
  begin
     id 21 
     name lhand
     direction 1 -4.48815e-011 -5.98193e-027   
     length 0.771611   
     axis 3.82337e-015 90 90   XYZ
    dof rx rz
    limits (-90.0 90.0)
           (-45.0 45.0)
  end
  begin
     id 22 
     name lfingers
     direction 1 -4.49034e-011 -1.1993e-026   
     length 0.622093   
     axis 7.64668e-015 90 90   XYZ
    dof rx
    limits (0.0 90.0)
  end
  begin
     id 23
     name lthumb
     direction 0.707107 -6.34867e-011 0.707107   
     length 0.893204   
     axis -90 45 -1.62303e-014   XYZ
    dof rx rz
    limits (-45.0 45.0)
           (-45.0 45.0)
  end
  begin
     id 24 
     name rclavicle
     direction -0.93442 0.355634 -0.0195692   
     length 3.62463  
     axis 0 0 0   XYZ 
    dof ry rz
    limits (-10.0 20.0)
           (-20.0 0.0)
  end
  begin
     id 25 
     name rhumerus
     direction -1 -4.48957e-011 -1.19147e-027  
     length 5.14182   
     axis 180 30 90   XYZ
    dof rx ry rz
    limits (-90.0 60.0)
           (-90.0 90.0)
           (-90.0 90.0)
  end
  begin
     id 26 
     name rradius
     direction -1 -4.48952e-011 -3.81062e-027   
     length 3.35565   
     axis 180 30 90   XYZ
    dof rx
    limits (-10.0 170.0)
  end
  begin
     id 27 
     name rwrist
     direction -1 -4.48973e-011 -2.99621e-027   
     length 1.67782   
     axis 1.95339e-015 -90 -90   XYZ
    dof ry
    limits (-180.0 0.0)
  end
  begin
     id 28
     name rhand
     direction -1 -4.48895e-011 -5.98727e-027   
     length 0.801042   
     axis 3.82337e-015 -90 -90   XYZ
    dof rx rz
    limits (-90.0 90.0)
           (-45.0 45.0)
  end
  begin
     id 29
     name rfingers
     direction -1 -4.49065e-011 -1.19972e-026   
     length 0.645821   
     axis 7.64668e-015 -90 -90   XYZ
    dof rx
    limits (0.0 90.0)
  end
  begin
     id 30
     name rthumb
     direction -0.707107 -6.34957e-011 0.707107   
     length 0.927273   
     axis -90 -45 1.62303e-014   XYZ
    dof rx rz
    limits (-45.0 45.0)
           (-45.0 45.0)
  end
:hierarchy
  begin
    root lhipjoint rhipjoint lowerback
    lhipjoint lfemur
    lfemur ltibia
    ltibia lfoot
    lfoot ltoes
    rhipjoint rfemur
    rfemur rtibia
    rtibia rfoot
    rfoot rtoes
    lowerback upperback
    upperback thorax
    thorax lowerneck lclavicle rclavicle
    lowerneck upperneck
    upperneck head
    lclavicle lhumerus
    lhumerus lradius
    lradius lwrist
    lwrist lhand lthumb
    lhand lfingers
    rclavicle rhumerus
    rhumerus rradius
    rradius rwrist
    rwrist rhand rthumb
    rhand rfingers
  end

#!OML:ASF E:\Style4\Style4.ASF
:FULLY-SPECIFIED
:DEGREES
583
root 0.28994 17.4743 -3.14144 12.145 2.7695 5.841
lowerback 23.4198 4.86454 4.33921
upperback 14.6761 7.03725 0.975259
thorax 3.65193 3.83521 -2.71298
lowerneck 11.4143 -16.1091 -1.51099
upperneck 20.1367 -21.6253 6.23865
head 5.29495 -10.1047 1.84245
rclavicle 2.8625e-014 -2.8625e-014
rhumerus 59.2243 20.0052 -425.839
rradius 22.9833
rwrist 366.753
rhand 20.3802 7.44731
rfingers 7.12502
rthumb 44.8891 -16.0958
lclavicle 2.8625e-014 -2.8625e-014
lhumerus 75.4536 24.9209 32.0416
lradius 115.606
lwrist 62.6859
lhand 20.3583 33.7745
lfingers 7.12502
lthumb 44.8687 57.3256
rfemur -41.3052 -7.48906 13.262
rtibia 43.0313
rfoot -12.0217 -17.1596
rtoes -8.66394
lfemur -37.8964 0.184819 -26.4829
ltibia 35.2444
lfoot -9.62146 8.16094
ltoes -14.4977
584
root 0.286443 17.4851 -3.14357 12.3117 2.81408 5.79735
lowerback 23.4525 4.90437 4.48609
upperback 14.5932 7.11712 0.996713
thorax 3.56555 3.88035 -2.79344
lowerneck 11.8607 -16.2707 -1.21787
upperneck 19.6394 -21.7145 5.99758
head 5.0202 -10.1676 1.79384
rclavicle -9.38264e-014 0
rhumerus 58.9666 20.0912 -425.908
rradius 23.1099
rwrist 366.243
rhand 20.1724 7.24588
rfingers 7.12502
rthumb 44.6956 -16.3726
lclavicle -9.38264e-014 0
lhumerus 75.636 24.8266 32.2366
lradius 115.566
lwrist 62.7699
lhand 20.4538 33.7
lfingers 7.12502
lthumb 44.9576 57.2162
rfemur -41.3429 -7.48751 13.3253
rtibia 42.7989
rfoot -11.9735 -17.1651
rtoes -8.39547
lfemur -37.9256 0.180997 -26.4315
ltibia 34.9615
lfoot -9.48016 8.13757
ltoes -14.4318
585
root 0.282371 17.4935 -3.14587 12.4783 2.85335 5.84113
lowerback 23.5104 4.9557 4.56873
upperback 14.4947 7.20188 0.989981
thorax 3.44511 3.92396 -2.87368
lowerneck 12.7977 -16.3896 -0.765843
upperneck 18.472 -21.6842 5.91199
head 4.45907 -10.1965 1.84438
rclavicle -1.04958e-013 6.36111e-015
rhumerus 58.5632 20.0838 -426.299
rradius 23.2112
rwrist 365.996
rhand 19.7002 7.18475
rfingers 7.12502
rthumb 44.2557 -16.6021
lclavicle -1.04958e-013 6.36111e-015
lhumerus 75.7923 24.6754 32.4143
lradius 115.578
lwrist 62.8799
lhand 20.412 33.5606
lfingers 7.12502
lthumb 44.9186 57.0922
rfemur -41.4104 -7.53847 13.3128
rtibia 42.5977
rfoot -11.8348 -17.162
rtoes -8.33388
lfemur -37.9583 0.117924 -26.4547
ltibia 34.689
lfoot -9.39192 8.18503
ltoes -14.61
586
root 0.278538 17.5032 -3.14839 12.6053 2.9036 5.83929
lowerback 23.5891 4.98751 4.69096
upperback 14.417 7.26946 0.987056
thorax 3.34271 3.96215 -2.96886
lowerneck 12.4571 -16.5941 -0.569221
upperneck 19.0465 -21.9079 5.36334
head 4.62229 -10.2756 1.6101
rclavicle 4.13472e-014 -2.70347e-014
rhumerus 58.1738 20.0766 -426.676
rradius 23.3433
rwrist 365.765
rhand 19.0066 7.24787
rfingers 7.12502
rthumb 43.6086 -16.7795
lclavicle 4.13472e-014 -2.70347e-014
lhumerus 75.9286 24.552 32.5536
lradius 115.563
lwrist 62.9339
lhand 20.2298 33.4113
lfingers 7.12502
lthumb 44.7491 57.009
rfemur -41.4643 -7.53818 13.3342
rtibia 42.4611
rfoot -11.796 -17.179
rtoes -7.97561
lfemur -37.9465 0.0789704 -26.4304
ltibia 34.4194
lfoot -9.31943 8.2256
ltoes -15.1172
587
root 0.276333 17.5109 -3.15171 12.7443 2.90981 5.9044
lowerback 23.6894 5.04369 4.78819
upperback 14.3161 7.36478 0.946732
thorax 3.20851 4.01308 -3.09934
lowerneck 12.6551 -16.7734 -0.375202
upperneck 19.0035 -22.071 5.14882
head 4.54591 -10.3518 1.54361
rclavicle -4.6118e-014 2.54444e-014
rhumerus 57.8632 20.1071 -426.761
rradius 23.4394
rwrist 365.327
rhand 18.25 7.397
rfingers 7.12502
rthumb 42.9015 -16.8836
lclavicle -4.6118e-014 2.54444e-014
lhumerus 76.0656 24.3519 32.6694
lradius 115.561
lwrist 62.9041
lhand 20.1434 33.3352
lfingers 7.12502
lthumb 44.6686 56.9641
rfemur -41.5863 -7.51883 13.2676
rtibia 42.4154
rfoot -11.78 -17.2171
rtoes -8.13947
lfemur -37.9558 0.11185 -26.513
ltibia 34.1515
lfoot -9.14581 8.13444
ltoes -14.8472
588
root 0.273594 17.5135 -3.15491 12.9716 2.94511 6.11742
lowerback 23.7314 5.11552 4.74407
upperback 14.1814 7.4534 0.8887
thorax 3.04497 4.05072 -3.16808
lowerneck 13.1727 -16.9388 -0.153719
upperneck 18.5608 -22.1923 5.11635
head 4.31334 -10.4231 1.57133
rclavicle 0 2.22639e-014
rhumerus 57.5093 20.1437 -426.804
rradius 23.5595
rwrist 364.826
rhand 17.4974 7.50702
rfingers 7.12502
rthumb 42.197 -17.0167
lclavicle 0 2.22639e-014
lhumerus 76.2447 24.0916 32.796
lradius 115.574
lwrist 62.9019
lhand 20.1593 33.4566
lfingers 7.12502
lthumb 44.6835 57.0798
rfemur -41.8316 -7.59778 13.0528
rtibia 42.4305
rfoot -11.8554 -17.2021
rtoes -8.16689
lfemur -38.084 0.0939325 -26.7651
ltibia 33.9365
lfoot -8.96306 8.01609
ltoes -14.3963
589
root 0.267701 17.5109 -3.15646 13.2487 2.9836 6.44295
lowerback 23.6863 5.19516 4.57127
upperback 14.0608 7.52463 0.788061
thorax 2.92527 4.07531 -3.19933
lowerneck 13.7974 -17.0768 0.148835
upperneck 17.8951 -22.259 5.17271
head 3.99607 -10.4728 1.63526
rclavicle -5.88403e-014 -7.95139e-015
rhumerus 57.0627 20.0889 -427.209
rradius 23.6739
rwrist 364.567
rhand 16.7259 7.68474
rfingers 7.12502
rthumb 41.4737 -17.0792
lclavicle -5.88403e-014 -7.95139e-015
lhumerus 76.446 23.8806 32.8786
lradius 115.613
lwrist 62.9689
lhand 20.1458 33.6911
lfingers 7.12502
lthumb 44.6709 57.3192
rfemur -42.158 -7.72911 12.7355
rtibia 42.4875
rfoot -11.8138 -17.2246
rtoes -8.12423
lfemur -38.308 0.0592557 -27.1432
ltibia 33.8237
lfoot -8.83962 7.9589
ltoes -14.6448
590
root 0.264181 17.5094 -3.16047 13.396 3.04411 6.41899
lowerback 23.7553 5.24457 4.76625
upperback 13.9393 7.62924 0.770844
thorax 2.79577 4.13489 -3.35899
lowerneck 14.64 -17.2408 0.582078
upperneck 16.7994 -22.2729 5.05619
head 3.93604 -10.5221 1.77151
rclavicle 1.27222e-014 4.45278e-014
rhumerus 56.6005 20.0073 -427.666
rradius 23.7182
rwrist 364.377
rhand 15.8133 8.00313
rfingers 7.12502
rthumb 40.6167 -17.0339
lclavicle 1.27222e-014 4.45278e-014
lhumerus 76.5911 23.6407 32.9674
lradius 115.686
lwrist 63.0419
lhand 19.9864 33.8544
lfingers 7.12502
lthumb 44.5224 57.5396
rfemur -42.3599 -7.74413 12.787
rtibia 42.5511
rfoot -11.8357 -17.2748
rtoes -7.90915
lfemur -38.5075 0.027623 -27.1061
ltibia 33.8531
lfoot -8.85438 7.90086
ltoes -14.3692
591
root 0.267906 17.5051 -3.16578 13.5538 3.15036 6.18402
lowerback 23.7991 5.26688 5.33059
upperback 13.7838 7.76904 0.771924
thorax 2.69886 4.23362 -3.70526
lowerneck 15.0919 -17.4608 0.887403
upperneck 16.5336 -22.4514 4.99535
head 3.73037 -10.6062 1.76826
rclavicle -8.11041e-014 -3.18055e-015
rhumerus 56.0848 19.8026 -428.094
rradius 23.6892
rwrist 364.216
rhand 14.8551 8.34454
rfingers 7.12502
rthumb 39.7153 -16.9668
lclavicle -8.11041e-014 -3.18055e-015
lhumerus 76.9112 23.2775 33.1603
lradius 115.749
lwrist 63.1373
lhand 19.9386 33.9477
lfingers 7.12502
lthumb 44.4779 57.6501
rfemur -42.5812 -7.75419 13.0662
rtibia 42.5944
rfoot -11.9142 -17.3084
rtoes -7.57893
lfemur -38.8299 -0.03731 -26.8384
ltibia 34.0236
lfoot -8.90879 7.8686
ltoes -14.1419
592
root 0.275802 17.4944 -3.17346 13.7828 3.3033 5.97984
lowerback 23.7546 5.28011 5.94029
upperback 13.6193 7.90376 0.765774
thorax 2.64572 4.33314 -4.07343
lowerneck 15.397 -17.6995 1.13658
upperneck 16.4716 -22.6815 4.97298
head 3.64024 -10.7065 1.76218
rclavicle -1.74931e-014 3.81667e-014
rhumerus 55.5618 19.6031 -428.281
rradius 23.7675
rwrist 363.846
rhand 13.8557 8.73728
rfingers 7.12502
rthumb 38.7734 -16.8473
lclavicle -1.74931e-014 3.81667e-014
lhumerus 77.3622 22.8331 33.4147
lradius 115.712
lwrist 63.144
lhand 20.0811 33.9235
lfingers 7.12502
lthumb 44.6106 57.5748
rfemur -42.9191 -7.8542 13.3315
rtibia 42.657
rfoot -11.8999 -17.3318
rtoes -7.68258
lfemur -39.3002 -0.174296 -26.6055
ltibia 34.2618
lfoot -8.92426 7.8597
ltoes -13.905
